<?xml version="1.0" encoding="utf-8"?>
<!-- Generator: Adobe Illustrator 16.0.3, SVG Export Plug-In . SVG Version: 6.00 Build 0)  -->
<!DOCTYPE svg PUBLIC "-//W3C//DTD SVG 1.1//EN" "http://www.w3.org/Graphics/SVG/1.1/DTD/svg11.dtd">
<svg version="1.1" id="Calque_1" xmlns:serif="http://www.serif.com/"
	 xmlns="http://www.w3.org/2000/svg" xmlns:xlink="http://www.w3.org/1999/xlink" x="0px" y="0px" width="330px" height="408.191px"
	 viewBox="191.335 0 330 408.191" enable-background="new 191.335 0 330 408.191" xml:space="preserve">
<g id="Plan-de-travail11" serif:id="Plan de travail1">
	<g id="Calque-1" transform="matrix(4.16667,0,0,4.16667,0,0)" serif:id="Calque 1">
		<g transform="matrix(-1,-0,0,1,113.545,-764.007)">
			<rect x="57.557" y="800.629" fill="#FFFFFF" width="2.037" height="-26.756"/>
		</g>
		<g transform="matrix(1,0,0,1,86.0958,35.9527)">
			<path fill="#FFFFFF" d="M-3.058-8.011c0,1.713-0.389,3.248-1.166,4.606c-0.778,1.358-1.862,2.413-3.252,3.166
				c-1.39,0.752-2.973,1.129-4.748,1.129c-1.763,0-3.347-0.376-4.749-1.129c-1.402-0.753-2.492-1.808-3.27-3.166
				c-0.777-1.358-1.166-2.893-1.166-4.606v-18.076h2.037v17.819c0,1.468,0.296,2.756,0.889,3.863
				c0.592,1.108,1.432,1.967,2.52,2.579s2.334,0.917,3.739,0.917c1.381,0,2.618-0.305,3.711-0.917
				c1.094-0.612,1.937-1.471,2.53-2.579C-5.392-5.512-5.095-6.8-5.095-8.267v-17.819h2.037V-8.011z"/>
		</g>
		<g transform="matrix(1,0,0,1,131.52,66.7151)">
			<path fill="#FFFFFF" d="M-24.771-55.05h-8.001v24.958h-2.037V-55.05h-7.964v-1.798h18.002V-55.05z"/>
		</g>
		<g transform="matrix(-1,-0,0,1,344.65,-634.57)">
			<rect x="225.054" y="695.907" fill="#FFFFFF" width="8.621" height="-8.622"/>
		</g>
		<g transform="matrix(-1,-0,0,1,344.65,-675.506)">
			<rect x="225.054" y="726.159" fill="#FFFFFF" width="8.621" height="-8.622"/>
		</g>
		<g transform="matrix(-1,-0,0,1,344.65,-716.44)">
			<rect x="225.054" y="756.41" fill="#FFFFFF" width="8.621" height="-8.624"/>
		</g>
		<g transform="matrix(-1,-0,0,1,344.65,-757.374)">
			<rect x="225.054" y="786.659" fill="#FFFFFF" width="8.621" height="-8.621"/>
		</g>
		<g transform="matrix(-1,-0,0,1,344.65,-799.03)">
			<rect x="225.054" y="817.443" fill="#FFFFFF" width="8.621" height="-8.621"/>
		</g>
		<g transform="matrix(1,0,0,1,53.6652,130.664)">
			<path fill="#FFFFFF" d="M12.445-42.765H0.49V-62.46h1.5v18.371h10.455V-42.765z"/>
		</g>
		<g transform="matrix(1,0,0,1,84.9757,130.664)">
			<path fill="#FFFFFF" d="M-2.522-42.765h-11.955V-62.46h11.955v1.324h-10.455v7.781h8.902v1.324h-8.902v7.943h10.455V-42.765z"/>
		</g>
		<g transform="matrix(1,0,0,1,122.29,130.664)">
			<path fill="#FFFFFF" d="M-20.359-42.765h-1.5l-11.361-17.129v17.129h-1.5V-62.46h1.5l11.361,17.061V-62.46h1.5V-42.765z"/>
		</g>
		<g transform="matrix(1,0,0,1,157.095,140.782)">
			<path fill="#FFFFFF" d="M-36.997-58.165c0,0.811-0.151,1.556-0.452,2.236c-0.302,0.68-0.739,1.256-1.311,1.729
				c-0.572,0.473-1.274,0.838-2.107,1.095c-0.833,0.256-1.754,0.385-2.762,0.385c-0.937,0-1.792-0.09-2.567-0.27
				c-0.775-0.18-1.486-0.464-2.134-0.851c-0.648-0.387-1.27-0.878-1.864-1.472l1.053-1.054c0.593,0.595,1.165,1.06,1.714,1.399
				c0.548,0.337,1.137,0.576,1.767,0.715c0.63,0.14,1.331,0.21,2.105,0.21c1.034,0,1.929-0.16,2.685-0.48
				c0.755-0.319,1.34-0.788,1.753-1.404c0.414-0.616,0.621-1.344,0.621-2.182c0-1.207-0.36-2.13-1.079-2.769
				c-0.333-0.288-0.701-0.506-1.106-0.655c-0.405-0.149-0.985-0.281-1.74-0.398l-2.293-0.352c-1.493-0.225-2.663-0.707-3.509-1.445
				c-1.035-0.864-1.551-2.071-1.551-3.621c0-0.828,0.146-1.578,0.438-2.249c0.293-0.67,0.7-1.238,1.222-1.702
				c0.521-0.464,1.166-0.82,1.93-1.067c0.765-0.248,1.607-0.371,2.524-0.371c1.197,0,2.227,0.169,3.091,0.506
				c0.864,0.338,1.724,0.876,2.579,1.615l-0.977,0.972c-0.693-0.621-1.392-1.081-2.098-1.378c-0.706-0.297-1.598-0.446-2.678-0.446
				c-1.421,0-2.536,0.365-3.345,1.094c-0.81,0.73-1.214,1.72-1.214,2.972c0,1.144,0.337,1.999,1.012,2.567
				c0.368,0.297,0.821,0.556,1.355,0.777c0.535,0.221,1.063,0.367,1.585,0.439l2.118,0.338c0.911,0.135,1.623,0.297,2.137,0.486
				c0.515,0.189,0.975,0.459,1.38,0.81c0.559,0.459,0.985,1.016,1.279,1.669C-37.143-59.666-36.997-58.948-36.997-58.165"/>
		</g>
		<g transform="matrix(-1,-0,0,1,241.729,-684.542)">
			<rect x="153.135" y="730.755" fill="#FFFFFF" width="0.339" height="-4.459"/>
		</g>
		<g transform="matrix(1,0,0,1,103.672,82.6801)">
			<path fill="#FFFFFF" d="M-11.46-36.467h-0.318v-1.872c0-0.292-0.071-0.515-0.214-0.67c-0.143-0.155-0.348-0.232-0.618-0.232
				c-0.18,0-0.333,0.035-0.461,0.105c-0.127,0.07-0.225,0.173-0.292,0.308c-0.067,0.136-0.101,0.299-0.101,0.488v1.872h-0.318
				v-3.019h0.318v0.358c0.226-0.263,0.523-0.395,0.89-0.395c0.339,0,0.605,0.096,0.801,0.288c0.208,0.198,0.312,0.477,0.312,0.838
				V-36.467z"/>
		</g>
		<g transform="matrix(1,0,0,1,110.023,84.3976)">
			<path fill="#FFFFFF" d="M-14.495-39.044c0,0.182-0.05,0.34-0.149,0.476c-0.099,0.136-0.24,0.24-0.422,0.312
				c-0.183,0.072-0.396,0.109-0.638,0.109c-0.515,0-0.923-0.144-1.225-0.431l0.221-0.22c0.235,0.246,0.566,0.37,0.992,0.37
				c0.294,0,0.519-0.052,0.675-0.154c0.156-0.103,0.234-0.256,0.234-0.46c0-0.155-0.046-0.273-0.14-0.355
				c-0.094-0.081-0.24-0.131-0.438-0.15l-0.502-0.046c-0.607-0.049-0.911-0.312-0.911-0.789c0-0.172,0.044-0.322,0.133-0.452
				c0.089-0.129,0.215-0.229,0.378-0.3c0.164-0.071,0.356-0.105,0.576-0.105c0.212,0,0.409,0.028,0.591,0.084
				c0.182,0.056,0.338,0.134,0.469,0.234l-0.214,0.214c-0.232-0.171-0.514-0.257-0.844-0.257c-0.249,0-0.44,0.051-0.572,0.153
				c-0.132,0.102-0.199,0.245-0.199,0.429c0,0.159,0.05,0.279,0.148,0.359c0.099,0.08,0.255,0.13,0.467,0.148l0.486,0.043
				c0.281,0.025,0.499,0.094,0.653,0.208C-14.572-39.511-14.495-39.317-14.495-39.044"/>
		</g>
		<g transform="matrix(1,0,0,1,113.925,80.8991)">
			<path fill="#FFFFFF" d="M-16.361-34.686h-0.275c-0.152,0-0.283-0.033-0.393-0.101c-0.11-0.067-0.193-0.16-0.248-0.279
				c-0.056-0.118-0.084-0.255-0.084-0.41v-1.991h-0.413v-0.239h0.413v-0.967h0.318v0.967h0.682v0.239h-0.682v1.997
				c0,0.335,0.154,0.502,0.462,0.502h0.22V-34.686z"/>
		</g>
		<g transform="matrix(1,0,0,1,-48.8993,-684.612)">
			<path fill="#FFFFFF" d="M147.742,730.825h-0.318v-3.019h0.318V730.825z M147.819,726.56c0,0.066-0.023,0.122-0.067,0.169
				c-0.045,0.048-0.1,0.071-0.165,0.071s-0.121-0.023-0.168-0.071c-0.047-0.047-0.07-0.101-0.07-0.163
				c0-0.066,0.023-0.122,0.069-0.168c0.046-0.046,0.1-0.069,0.163-0.069c0.067,0,0.124,0.023,0.17,0.069
				C147.796,726.445,147.819,726.498,147.819,726.56"/>
		</g>
		<g transform="matrix(1,0,0,1,120.769,80.8991)">
			<path fill="#FFFFFF" d="M-19.632-34.686h-0.274c-0.153,0-0.283-0.033-0.393-0.101c-0.11-0.067-0.193-0.16-0.248-0.279
				c-0.056-0.118-0.084-0.255-0.084-0.41v-1.991h-0.413v-0.239h0.413v-0.967h0.318v0.967h0.682v0.239h-0.682v1.997
				c0,0.335,0.154,0.502,0.462,0.502h0.22V-34.686z"/>
		</g>
		<g transform="matrix(1,0,0,1,126.986,82.8211)">
			<path fill="#FFFFFF" d="M-22.604-36.608h-0.318v-0.358c-0.226,0.263-0.522,0.395-0.889,0.395c-0.338,0-0.604-0.096-0.8-0.287
				c-0.21-0.2-0.314-0.479-0.314-0.838v-1.93h0.318v1.872c0,0.291,0.071,0.515,0.214,0.67c0.143,0.155,0.349,0.232,0.618,0.232
				c0.18,0,0.333-0.035,0.46-0.105c0.128-0.07,0.225-0.173,0.292-0.309c0.067-0.135,0.101-0.298,0.101-0.487v-1.872h0.318V-36.608z"
				/>
		</g>
		<g transform="matrix(1,0,0,1,131.381,80.8991)">
			<path fill="#FFFFFF" d="M-24.705-34.686h-0.275c-0.152,0-0.283-0.033-0.393-0.101c-0.11-0.067-0.193-0.16-0.248-0.279
				c-0.056-0.118-0.084-0.255-0.084-0.41v-1.991h-0.413v-0.239h0.413v-0.967h0.318v0.967h0.682v0.239h-0.682v1.997
				c0,0.335,0.154,0.502,0.462,0.502h0.22V-34.686z"/>
		</g>
		<g transform="matrix(1,0,0,1,71.6676,97.234)">
			<path fill="#FFFFFF" d="M3.839-44.951c0,0.285-0.065,0.541-0.195,0.768c-0.129,0.226-0.31,0.402-0.542,0.527
				c-0.231,0.126-0.495,0.188-0.791,0.188c-0.294,0-0.557-0.063-0.791-0.188c-0.234-0.125-0.416-0.301-0.545-0.527
				c-0.129-0.226-0.194-0.482-0.194-0.768v-3.012H1.12v2.97c0,0.245,0.05,0.459,0.148,0.644c0.099,0.185,0.238,0.328,0.42,0.43
				c0.182,0.102,0.389,0.153,0.623,0.153c0.23,0,0.436-0.051,0.619-0.153c0.182-0.102,0.323-0.245,0.422-0.43
				C3.45-44.534,3.5-44.749,3.5-44.993v-2.97h0.339V-44.951z"/>
		</g>
		<g transform="matrix(1,0,0,1,78.482,97.0805)">
			<path fill="#FFFFFF" d="M0.582-43.351H0.264v-1.872c0-0.292-0.071-0.515-0.214-0.67c-0.143-0.155-0.348-0.232-0.618-0.232
				c-0.18,0-0.333,0.035-0.46,0.105c-0.127,0.07-0.225,0.173-0.292,0.308c-0.067,0.135-0.101,0.299-0.101,0.488v1.872h-0.318v-3.019
				h0.318v0.357c0.227-0.263,0.523-0.394,0.89-0.394c0.339,0,0.606,0.096,0.801,0.288c0.208,0.198,0.312,0.477,0.312,0.838V-43.351z
				"/>
		</g>
		<g transform="matrix(1,0,0,1,-48.8993,-655.812)">
			<path fill="#FFFFFF" d="M129.462,709.542h-0.318v-3.019h0.318V709.542z M129.538,705.277c0,0.066-0.023,0.123-0.067,0.17
				c-0.045,0.047-0.1,0.07-0.165,0.07c-0.065,0-0.122-0.023-0.169-0.07c-0.047-0.047-0.07-0.102-0.07-0.164
				c0-0.066,0.023-0.121,0.068-0.167c0.046-0.047,0.101-0.07,0.164-0.07c0.067,0,0.124,0.023,0.17,0.07
				C129.515,705.161,129.538,705.215,129.538,705.277"/>
		</g>
		<g transform="matrix(1,0,0,1,87.5113,102.934)">
			<path fill="#FFFFFF" d="M-3.734-52.223l-1.101,3.019h-0.315l-1.101-3.019h0.349l0.908,2.642l0.908-2.642H-3.734z"/>
		</g>
		<g transform="matrix(1,0,0,1,92.527,100.402)">
			<path fill="#FFFFFF" d="M-6.132-48.37c-0.006-0.149-0.015-0.256-0.028-0.323c-0.012-0.066-0.038-0.148-0.076-0.246
				c-0.063-0.155-0.168-0.278-0.312-0.37c-0.145-0.092-0.302-0.138-0.471-0.138c-0.173,0-0.33,0.045-0.471,0.136
				c-0.14,0.091-0.244,0.214-0.312,0.371c-0.039,0.098-0.065,0.184-0.078,0.257c-0.013,0.074-0.023,0.177-0.029,0.312H-6.132z
				 M-5.811-48.113h-2.098c0,0.384,0.084,0.678,0.252,0.883c0.168,0.205,0.411,0.307,0.73,0.307c0.175,0,0.325-0.027,0.449-0.083
				c0.124-0.055,0.253-0.149,0.385-0.281l0.239,0.19c-0.161,0.161-0.323,0.278-0.487,0.352c-0.164,0.074-0.365,0.11-0.603,0.11
				c-0.277,0-0.51-0.059-0.701-0.176c-0.191-0.117-0.335-0.291-0.434-0.521c-0.099-0.23-0.148-0.514-0.148-0.85
				c0-0.244,0.028-0.462,0.083-0.653c0.055-0.191,0.134-0.351,0.236-0.481c0.103-0.13,0.231-0.232,0.383-0.303
				c0.153-0.071,0.322-0.107,0.507-0.107c0.189,0,0.357,0.033,0.504,0.098c0.147,0.065,0.273,0.162,0.379,0.289
				c0.106,0.127,0.186,0.282,0.241,0.463c0.055,0.182,0.082,0.388,0.082,0.621V-48.113z"/>
		</g>
		<g transform="matrix(1,0,0,1,98.8141,102.384)">
			<path fill="#FFFFFF" d="M-9.137-51.422l-0.229,0.232c-0.094-0.093-0.18-0.157-0.26-0.189c-0.08-0.032-0.184-0.049-0.312-0.049
				c-0.123,0-0.235,0.024-0.338,0.072c-0.103,0.048-0.189,0.115-0.26,0.2c-0.07,0.086-0.123,0.182-0.157,0.29
				c-0.035,0.108-0.052,0.225-0.052,0.352v1.86h-0.318v-3.019h0.318v0.4c0.088-0.139,0.212-0.246,0.373-0.322
				c0.161-0.077,0.332-0.115,0.51-0.115c0.149,0,0.281,0.022,0.396,0.064C-9.351-51.603-9.241-51.528-9.137-51.422"/>
		</g>
		<g transform="matrix(1,0,0,1,104.123,98.798)">
			<path fill="#FFFFFF" d="M-11.675-45.927c0,0.181-0.05,0.34-0.149,0.475c-0.099,0.136-0.24,0.24-0.422,0.312
				c-0.183,0.072-0.396,0.109-0.638,0.109c-0.515,0-0.923-0.144-1.225-0.431l0.221-0.22c0.235,0.247,0.566,0.37,0.992,0.37
				c0.294,0,0.519-0.052,0.675-0.154c0.156-0.103,0.234-0.256,0.234-0.46c0-0.155-0.046-0.273-0.14-0.355
				c-0.094-0.081-0.24-0.131-0.438-0.15l-0.502-0.046c-0.607-0.049-0.911-0.312-0.911-0.789c0-0.172,0.044-0.322,0.133-0.451
				c0.089-0.129,0.215-0.229,0.378-0.3c0.164-0.07,0.356-0.105,0.576-0.105c0.213,0,0.409,0.028,0.591,0.084
				c0.182,0.056,0.338,0.134,0.469,0.234l-0.214,0.214c-0.232-0.171-0.514-0.257-0.844-0.257c-0.249,0-0.44,0.051-0.572,0.153
				c-0.132,0.102-0.199,0.245-0.199,0.428c0,0.159,0.05,0.279,0.148,0.359c0.099,0.08,0.255,0.13,0.467,0.148l0.486,0.043
				c0.281,0.025,0.499,0.094,0.653,0.208C-11.752-46.395-11.675-46.201-11.675-45.927"/>
		</g>
		<g transform="matrix(1,0,0,1,-48.8993,-655.812)">
			<path fill="#FFFFFF" d="M142.625,709.542h-0.318v-3.019h0.318V709.542z M142.702,705.277c0,0.066-0.022,0.123-0.067,0.17
				c-0.045,0.047-0.1,0.07-0.165,0.07c-0.065,0-0.121-0.023-0.168-0.07c-0.047-0.047-0.07-0.102-0.07-0.164
				c0-0.066,0.023-0.121,0.069-0.167c0.046-0.047,0.101-0.07,0.164-0.07c0.067,0,0.124,0.023,0.169,0.07
				C142.679,705.161,142.702,705.215,142.702,705.277"/>
		</g>
		<g transform="matrix(1,0,0,1,110.966,95.2995)">
			<path fill="#FFFFFF" d="M-14.946-41.57h-0.275c-0.152,0-0.283-0.033-0.393-0.101c-0.11-0.067-0.193-0.16-0.248-0.278
				c-0.056-0.118-0.084-0.255-0.084-0.41v-1.991h-0.413v-0.239h0.413v-0.967h0.318v0.967h0.682v0.239h-0.682v1.997
				c0,0.335,0.154,0.502,0.462,0.502h0.22V-41.57z"/>
		</g>
		<g transform="matrix(1,0,0,1,116.205,99.1669)">
			<path fill="#FFFFFF" d="M-17.45-46.489v-0.389h-0.941c-0.515,0-0.772,0.203-0.772,0.609c0,0.2,0.064,0.347,0.191,0.443
				c0.128,0.096,0.328,0.144,0.599,0.144c0.165,0,0.308-0.015,0.428-0.044c0.12-0.03,0.228-0.092,0.326-0.188
				C-17.506-46.018-17.45-46.21-17.45-46.489 M-17.133-45.437h-0.318v-0.3c-0.127,0.127-0.258,0.214-0.395,0.263
				c-0.137,0.049-0.312,0.074-0.527,0.074c-0.145,0-0.274-0.01-0.386-0.028c-0.112-0.018-0.209-0.048-0.29-0.089
				c-0.08-0.041-0.152-0.093-0.215-0.158c-0.145-0.151-0.218-0.347-0.218-0.587c0-0.278,0.094-0.492,0.28-0.644
				c0.187-0.152,0.445-0.228,0.773-0.228h0.977v-0.34c0-0.248-0.067-0.434-0.201-0.555c-0.134-0.122-0.351-0.182-0.651-0.182
				c-0.213,0-0.381,0.029-0.506,0.087c-0.124,0.058-0.234,0.157-0.33,0.295l-0.23-0.202c0.085-0.121,0.178-0.213,0.278-0.278
				c0.1-0.065,0.215-0.112,0.345-0.141c0.129-0.029,0.277-0.043,0.442-0.043c0.781,0,1.171,0.329,1.171,0.988V-45.437z"/>
		</g>
		<g transform="matrix(1,0,0,1,-48.8993,-655.812)">
			<path fill="#FFFFFF" d="M149.48,709.542h-0.318v-3.019h0.318V709.542z M149.556,705.277c0,0.066-0.022,0.123-0.067,0.17
				c-0.045,0.047-0.1,0.07-0.165,0.07s-0.121-0.023-0.168-0.07c-0.047-0.047-0.07-0.102-0.07-0.164c0-0.066,0.023-0.121,0.069-0.167
				c0.046-0.047,0.1-0.07,0.164-0.07c0.067,0,0.124,0.023,0.17,0.07C149.533,705.161,149.556,705.215,149.556,705.277"/>
		</g>
		<g transform="matrix(1,0,0,1,125.726,102.384)">
			<path fill="#FFFFFF" d="M-22.002-51.422l-0.229,0.232c-0.094-0.093-0.181-0.157-0.26-0.189c-0.08-0.032-0.184-0.049-0.312-0.049
				c-0.123,0-0.235,0.024-0.338,0.072c-0.103,0.048-0.189,0.115-0.26,0.2c-0.07,0.086-0.123,0.182-0.157,0.29
				c-0.035,0.108-0.052,0.225-0.052,0.352v1.86h-0.318v-3.019h0.318v0.4c0.088-0.139,0.212-0.246,0.373-0.322
				c0.161-0.077,0.331-0.115,0.51-0.115c0.149,0,0.281,0.022,0.396,0.064C-22.215-51.603-22.106-51.528-22.002-51.422"/>
		</g>
		<g transform="matrix(1,0,0,1,130.625,100.402)">
			<path fill="#FFFFFF" d="M-24.343-48.37c-0.006-0.149-0.015-0.256-0.028-0.323c-0.012-0.066-0.037-0.148-0.076-0.246
				c-0.063-0.155-0.168-0.278-0.312-0.37c-0.145-0.092-0.302-0.138-0.471-0.138c-0.173,0-0.33,0.045-0.471,0.136
				c-0.14,0.091-0.244,0.214-0.312,0.371c-0.038,0.098-0.065,0.184-0.078,0.257c-0.013,0.074-0.023,0.177-0.029,0.312H-24.343z
				 M-24.022-48.113h-2.098c0,0.384,0.084,0.678,0.252,0.883c0.168,0.205,0.411,0.307,0.73,0.307c0.175,0,0.325-0.027,0.45-0.083
				c0.124-0.055,0.253-0.149,0.385-0.281l0.239,0.19c-0.161,0.161-0.323,0.278-0.487,0.352c-0.164,0.074-0.365,0.11-0.603,0.11
				c-0.277,0-0.511-0.059-0.701-0.176c-0.191-0.117-0.335-0.291-0.434-0.521c-0.099-0.23-0.148-0.514-0.148-0.85
				c0-0.244,0.028-0.462,0.083-0.653c0.055-0.191,0.134-0.351,0.236-0.481c0.103-0.13,0.231-0.232,0.383-0.303
				c0.153-0.071,0.322-0.107,0.507-0.107c0.189,0,0.357,0.033,0.504,0.098c0.147,0.065,0.273,0.162,0.379,0.289
				c0.106,0.127,0.186,0.282,0.241,0.463c0.055,0.182,0.083,0.388,0.083,0.621V-48.113z"/>
		</g>
		<g transform="matrix(1,0,0,1,74.316,116.76)">
			<path fill="#FFFFFF" d="M2.573-59.673H1.24v4.16H0.9v-4.16h-1.327v-0.3h3V-59.673z"/>
		</g>
		<g transform="matrix(1,0,0,1,79.525,114.802)">
			<path fill="#FFFFFF" d="M0.083-55.253c-0.006-0.149-0.015-0.256-0.028-0.323c-0.012-0.066-0.038-0.148-0.076-0.246
				c-0.063-0.155-0.167-0.278-0.312-0.37c-0.145-0.092-0.302-0.138-0.471-0.138c-0.173,0-0.33,0.045-0.471,0.136
				c-0.14,0.091-0.244,0.215-0.312,0.372c-0.039,0.098-0.065,0.184-0.078,0.257c-0.013,0.074-0.023,0.177-0.029,0.312H0.083z
				 M0.404-54.996h-2.098c0,0.384,0.084,0.678,0.252,0.883c0.168,0.205,0.411,0.307,0.73,0.307c0.175,0,0.325-0.027,0.449-0.082
				c0.124-0.055,0.253-0.149,0.385-0.281l0.239,0.19c-0.161,0.161-0.323,0.278-0.487,0.351c-0.164,0.074-0.365,0.11-0.603,0.11
				c-0.277,0-0.51-0.059-0.701-0.176s-0.335-0.291-0.434-0.522c-0.099-0.23-0.148-0.514-0.148-0.85c0-0.244,0.028-0.462,0.083-0.653
				c0.055-0.19,0.134-0.351,0.236-0.481c0.103-0.131,0.231-0.232,0.383-0.303c0.153-0.071,0.322-0.108,0.507-0.108
				c0.189,0,0.357,0.033,0.504,0.098c0.147,0.065,0.273,0.162,0.379,0.289c0.106,0.127,0.186,0.282,0.241,0.463
				c0.055,0.182,0.083,0.389,0.083,0.621V-54.996z"/>
		</g>
		<g transform="matrix(1,0,0,1,86.234,112.365)">
			<path fill="#FFFFFF" d="M-3.124-51.544c-0.161,0.177-0.315,0.299-0.461,0.364c-0.147,0.065-0.325,0.098-0.534,0.098
				c-0.202,0-0.383-0.036-0.545-0.105c-0.162-0.07-0.302-0.174-0.42-0.311c-0.118-0.137-0.208-0.302-0.269-0.495
				c-0.061-0.194-0.091-0.406-0.091-0.637c0-0.32,0.053-0.595,0.16-0.826c0.106-0.231,0.26-0.408,0.46-0.532
				c0.199-0.124,0.434-0.187,0.705-0.187c0.216,0,0.397,0.033,0.542,0.099c0.146,0.066,0.297,0.187,0.454,0.363l-0.22,0.201
				c-0.084-0.095-0.165-0.172-0.245-0.228c-0.079-0.056-0.16-0.096-0.243-0.12c-0.083-0.023-0.179-0.035-0.289-0.035
				c-0.349,0-0.616,0.134-0.801,0.401c-0.074,0.106-0.126,0.227-0.158,0.362c-0.032,0.136-0.047,0.302-0.047,0.5
				c0,0.198,0.015,0.363,0.046,0.497c0.031,0.134,0.084,0.256,0.159,0.369c0.185,0.267,0.453,0.401,0.801,0.401
				c0.159,0,0.296-0.028,0.413-0.084c0.116-0.056,0.238-0.156,0.364-0.299L-3.124-51.544z"/>
		</g>
		<g transform="matrix(1,0,0,1,92.486,108.791)">
			<path fill="#FFFFFF" d="M-6.112-47.545H-6.43v-1.872c0-0.292-0.072-0.515-0.215-0.67c-0.143-0.155-0.348-0.232-0.617-0.232
				c-0.18,0-0.333,0.035-0.46,0.105c-0.127,0.07-0.225,0.173-0.292,0.308c-0.067,0.136-0.101,0.299-0.101,0.488v1.872h-0.318v-4.459
				h0.318v1.798c0.227-0.263,0.523-0.395,0.89-0.395c0.225,0,0.421,0.045,0.59,0.136c0.169,0.091,0.299,0.221,0.388,0.39
				c0.09,0.169,0.135,0.369,0.135,0.6V-47.545z"/>
		</g>
		<g transform="matrix(1,0,0,1,99.1949,111.48)">
			<path fill="#FFFFFF" d="M-9.319-50.234h-0.318v-1.872c0-0.292-0.071-0.515-0.215-0.67c-0.143-0.155-0.348-0.232-0.617-0.232
				c-0.18,0-0.333,0.035-0.46,0.105c-0.127,0.07-0.225,0.173-0.292,0.308c-0.067,0.136-0.101,0.299-0.101,0.488v1.872h-0.318v-3.019
				h0.318v0.358c0.227-0.263,0.523-0.395,0.89-0.395c0.339,0,0.605,0.096,0.801,0.288c0.208,0.198,0.312,0.477,0.312,0.838V-50.234z
				"/>
		</g>
		<g transform="matrix(1,0,0,1,105.166,114.445)">
			<path fill="#FFFFFF" d="M-12.174-54.71c0-0.232-0.016-0.43-0.051-0.593c-0.034-0.163-0.106-0.3-0.219-0.413
				c-0.167-0.171-0.375-0.257-0.625-0.257c-0.251,0-0.461,0.086-0.628,0.257c-0.112,0.113-0.185,0.253-0.219,0.421
				c-0.033,0.168-0.051,0.363-0.051,0.585c0,0.22,0.017,0.416,0.051,0.586c0.034,0.17,0.107,0.311,0.219,0.424
				c0.172,0.171,0.381,0.257,0.628,0.257c0.245,0,0.453-0.086,0.625-0.257c0.113-0.112,0.185-0.251,0.219-0.414
				C-12.19-54.279-12.174-54.477-12.174-54.71 M-11.856-54.71c0,0.161-0.01,0.314-0.03,0.459c-0.02,0.145-0.059,0.282-0.113,0.413
				c-0.055,0.13-0.132,0.246-0.232,0.345c-0.225,0.22-0.503,0.33-0.837,0.33c-0.336,0-0.616-0.11-0.84-0.33
				c-0.1-0.1-0.178-0.215-0.232-0.344c-0.056-0.129-0.093-0.266-0.113-0.408c-0.02-0.143-0.031-0.298-0.031-0.465
				c0-0.253,0.027-0.482,0.079-0.688c0.053-0.206,0.152-0.382,0.296-0.526c0.22-0.22,0.5-0.33,0.84-0.33
				c0.338,0,0.617,0.11,0.837,0.33c0.1,0.1,0.177,0.215,0.232,0.345c0.055,0.131,0.093,0.268,0.113,0.412
				C-11.866-55.024-11.856-54.871-11.856-54.71"/>
		</g>
		<g transform="matrix(1,0,0,1,109.66,108.791)">
			<path fill="#FFFFFF" d="M-14.322-47.545h-0.275c-0.235,0-0.414-0.07-0.539-0.209c-0.124-0.14-0.186-0.331-0.186-0.574v-3.676
				h0.318v3.67c0,0.176,0.035,0.304,0.105,0.386c0.069,0.082,0.189,0.122,0.361,0.122h0.217V-47.545z"/>
		</g>
		<g transform="matrix(1,0,0,1,114.922,114.445)">
			<path fill="#FFFFFF" d="M-16.837-54.71c0-0.232-0.017-0.43-0.051-0.593c-0.034-0.163-0.106-0.3-0.219-0.413
				c-0.167-0.171-0.375-0.257-0.625-0.257c-0.251,0-0.46,0.086-0.628,0.257c-0.112,0.113-0.185,0.253-0.219,0.421
				c-0.033,0.168-0.051,0.363-0.051,0.585c0,0.22,0.017,0.416,0.051,0.586c0.034,0.17,0.107,0.311,0.219,0.424
				c0.172,0.171,0.381,0.257,0.628,0.257c0.245,0,0.454-0.086,0.625-0.257c0.113-0.112,0.185-0.251,0.219-0.414
				C-16.854-54.279-16.837-54.477-16.837-54.71 M-16.519-54.71c0,0.161-0.01,0.314-0.03,0.459c-0.021,0.145-0.059,0.282-0.113,0.413
				c-0.055,0.13-0.132,0.246-0.232,0.345c-0.225,0.22-0.503,0.33-0.837,0.33c-0.336,0-0.616-0.11-0.84-0.33
				c-0.1-0.1-0.178-0.215-0.232-0.344c-0.055-0.129-0.092-0.266-0.113-0.408c-0.021-0.143-0.031-0.298-0.031-0.465
				c0-0.253,0.027-0.482,0.079-0.688c0.053-0.206,0.152-0.382,0.297-0.526c0.22-0.22,0.5-0.33,0.84-0.33
				c0.338,0,0.617,0.11,0.837,0.33c0.1,0.1,0.177,0.215,0.232,0.345c0.055,0.131,0.093,0.268,0.113,0.412
				C-16.529-55.024-16.519-54.871-16.519-54.71"/>
		</g>
		<g transform="matrix(1,0,0,1,121.062,117.205)">
			<path fill="#FFFFFF" d="M-19.772-57.47c0-0.381-0.058-0.687-0.174-0.918c-0.116-0.23-0.342-0.345-0.679-0.345
				c-0.334,0-0.56,0.115-0.676,0.345c-0.116,0.231-0.174,0.536-0.174,0.918c0,0.383,0.058,0.69,0.174,0.921
				c0.116,0.23,0.342,0.346,0.676,0.346c0.337,0,0.563-0.115,0.679-0.346C-19.83-56.78-19.772-57.087-19.772-57.47 M-19.454-55.791
				c0,0.253-0.049,0.479-0.147,0.678c-0.098,0.199-0.24,0.353-0.426,0.465c-0.186,0.111-0.406,0.167-0.659,0.167
				c-0.214,0-0.39-0.029-0.529-0.087c-0.139-0.058-0.294-0.163-0.467-0.314l0.212-0.211c0.137,0.12,0.258,0.205,0.364,0.255
				c0.106,0.05,0.246,0.075,0.419,0.075c0.302,0,0.53-0.096,0.684-0.288c0.154-0.191,0.231-0.445,0.231-0.758v-0.539
				c-0.086,0.112-0.174,0.199-0.267,0.261c-0.092,0.063-0.191,0.105-0.296,0.128c-0.105,0.023-0.215,0.036-0.331,0.036
				c-0.318,0-0.564-0.088-0.739-0.263c-0.258-0.259-0.388-0.687-0.388-1.285c0-0.595,0.129-1.022,0.388-1.281
				c0.082-0.081,0.186-0.146,0.313-0.193c0.127-0.047,0.269-0.071,0.426-0.071c0.187,0,0.353,0.03,0.497,0.09
				c0.145,0.06,0.277,0.172,0.397,0.335v-0.389h0.318V-55.791z"/>
		</g>
		<g transform="matrix(1,0,0,1,-48.8993,-627.013)">
			<path fill="#FFFFFF" d="M152.043,688.259h-0.318v-3.019h0.318V688.259z M152.119,683.994c0,0.066-0.023,0.122-0.067,0.169
				c-0.045,0.047-0.1,0.071-0.165,0.071s-0.121-0.023-0.168-0.071c-0.047-0.047-0.071-0.101-0.071-0.164
				c0-0.066,0.023-0.121,0.069-0.167c0.046-0.046,0.101-0.069,0.164-0.069c0.068,0,0.124,0.023,0.17,0.069
				C152.096,683.878,152.119,683.933,152.119,683.994"/>
		</g>
		<g transform="matrix(1,0,0,1,130.625,114.802)">
			<path fill="#FFFFFF" d="M-24.343-55.253c-0.006-0.149-0.015-0.256-0.028-0.323c-0.012-0.066-0.037-0.148-0.076-0.246
				c-0.063-0.155-0.168-0.278-0.312-0.37c-0.145-0.092-0.302-0.138-0.471-0.138c-0.173,0-0.33,0.045-0.471,0.136
				c-0.14,0.091-0.244,0.215-0.312,0.372c-0.038,0.098-0.065,0.184-0.078,0.257c-0.013,0.074-0.023,0.177-0.029,0.312H-24.343z
				 M-24.022-54.996h-2.098c0,0.384,0.084,0.678,0.252,0.883c0.168,0.205,0.411,0.307,0.73,0.307c0.175,0,0.325-0.027,0.45-0.082
				c0.124-0.055,0.253-0.149,0.385-0.281l0.239,0.19c-0.161,0.161-0.323,0.278-0.487,0.351c-0.164,0.074-0.365,0.11-0.603,0.11
				c-0.277,0-0.511-0.059-0.701-0.176c-0.191-0.117-0.335-0.291-0.434-0.522c-0.099-0.23-0.148-0.514-0.148-0.85
				c0-0.244,0.028-0.462,0.083-0.653c0.055-0.19,0.134-0.351,0.236-0.481s0.231-0.232,0.383-0.303
				c0.153-0.071,0.322-0.108,0.507-0.108c0.189,0,0.357,0.033,0.504,0.098c0.147,0.065,0.273,0.162,0.379,0.289
				c0.106,0.127,0.186,0.282,0.241,0.463c0.055,0.182,0.083,0.389,0.083,0.621V-54.996z"/>
		</g>
	</g>
</g>
</svg>
